<svg xmlns="http://www.w3.org/2000/svg" width="22.833" height="18.267" viewBox="0 0 22.833 18.267">
  <path id="diagnoses" d="M17.7,9.133a.571.571,0,1,0-.571-.571A.573.573,0,0,0,17.7,9.133ZM11.417,6.279a3.14,3.14,0,1,0-3.14-3.14A3.144,3.144,0,0,0,11.417,6.279ZM2.134,12.987a1.137,1.137,0,0,0,1.53.349A21.387,21.387,0,0,1,7.421,11.6v3.24h7.992V11.606a21.106,21.106,0,0,1,3.757,1.734,1.144,1.144,0,0,0,1.53-.349l.635-.953a1.138,1.138,0,0,0-.357-1.609c-.424-.253-1.06-.606-1.823-.977A1.708,1.708,0,0,1,16.026,8.2a15.419,15.419,0,0,0-4.609-.778A16.534,16.534,0,0,0,5.708,8.57,1.707,1.707,0,0,1,2.883,9.854c-.4.214-.76.414-1.024.571A1.137,1.137,0,0,0,1.5,12.034Zm11-.714a.856.856,0,1,1-.856.856A.854.854,0,0,1,13.129,12.273ZM9.7,8.848a.856.856,0,1,1-.856.856A.854.854,0,0,1,9.7,8.848ZM4,9.133a.571.571,0,1,0-.571-.571A.573.573,0,0,0,4,9.133Zm18.267,6.85H.571A.573.573,0,0,0,0,16.554V17.7a.573.573,0,0,0,.571.571H22.263a.573.573,0,0,0,.571-.571V16.554a.573.573,0,0,0-.571-.571Z" fill="#52c4c8"/>
</svg>
