<svg xmlns="http://www.w3.org/2000/svg" width="22" height="22.001" viewBox="0 0 22 22.001">
  <path id="gender" d="M19.7,3.375V5.086H22.75L19.863,8a5.978,5.978,0,1,0-5.185,10.558,2.587,2.587,0,0,0,1.042-1.55A4.258,4.258,0,0,1,12,12.784a4.277,4.277,0,0,1,8.554,0A4.192,4.192,0,0,1,20,14.842a7.519,7.519,0,0,1,.133,1.363,7.337,7.337,0,0,1-.107,1.258,6.454,6.454,0,0,0,.481-.455A5.937,5.937,0,0,0,21.066,9.2l2.914-2.885V9.363H25.69V3.375Zm-5.239,7.057a2.586,2.586,0,0,0-1.042,1.551,4.2,4.2,0,0,1,2.459,1.2,4.271,4.271,0,1,1-7.3,3.02,4.192,4.192,0,0,1,.561-2.058,7.518,7.518,0,0,1-.133-1.363,7.337,7.337,0,0,1,.107-1.258,6.457,6.457,0,0,0-.481.456,5.936,5.936,0,0,0-.562,7.805L6.632,21.23,4.922,19.52l-1.232,1.2L5.4,22.433,3.69,24.144l1.232,1.232,1.711-1.711,1.711,1.711,1.2-1.232L7.835,22.433l1.444-1.442a5.978,5.978,0,1,0,5.185-10.559Z" transform="translate(-3.69 -3.375)" fill="#52c4c8"/>
</svg>
