<svg xmlns="http://www.w3.org/2000/svg" width="20.007" height="20" viewBox="0 0 20.007 20">
  <path id="phone" d="M21.064,23.375h-.131C5.817,22.506,3.672,9.752,3.372,5.86A2.308,2.308,0,0,1,5.495,3.375H9.733a1.538,1.538,0,0,1,1.431.969l1.169,2.877a1.538,1.538,0,0,1-.338,1.662l-1.638,1.654a7.208,7.208,0,0,0,5.83,5.846l1.669-1.654a1.538,1.538,0,0,1,1.669-.315l2.9,1.162a1.538,1.538,0,0,1,.947,1.43v4.062a2.308,2.308,0,0,1-2.308,2.308ZM5.679,4.913a.769.769,0,0,0-.769.769v.062C5.264,10.3,7.533,21.067,21.018,21.837a.769.769,0,0,0,.816-.723V17.006l-2.9-1.162-2.208,2.192-.369-.046c-6.692-.838-7.6-7.531-7.6-7.6L8.71,10.02,10.9,7.813l-1.154-2.9Z" transform="translate(-3.364 -3.375)" fill="#52c4c8"/>
</svg>
