<svg xmlns="http://www.w3.org/2000/svg" width="18.667" height="18.667" viewBox="0 0 18.667 18.667">
  <path id="weight" d="M18.867,4.867H17.513A2.875,2.875,0,0,0,17,3.933,2.8,2.8,0,0,0,14.9,3H9.785a2.8,2.8,0,0,0-2.119.933,2.875,2.875,0,0,0-.532.933H5.8A2.8,2.8,0,0,0,3,7.667v11.2a2.8,2.8,0,0,0,2.8,2.8H18.867a2.8,2.8,0,0,0,2.8-2.8V7.667A2.8,2.8,0,0,0,18.867,4.867Zm-9.781.317a.933.933,0,0,1,.7-.317h5.1a.945.945,0,0,1,.933,1.045l-.467,3.733a.933.933,0,0,1-.933.821H12.884l1.064-2.24a.933.933,0,0,0-1.68-.8l-1.456,3.043h-.56a.933.933,0,0,1-.933-.821L8.852,5.912A.933.933,0,0,1,9.085,5.184ZM19.8,18.867a.933.933,0,0,1-.933.933H5.8a.933.933,0,0,1-.933-.933V7.667A.933.933,0,0,1,5.8,6.733H7.079l.392,3.145a2.8,2.8,0,0,0,2.8,2.455h4.163a2.8,2.8,0,0,0,2.8-2.455l.355-3.145h1.279a.933.933,0,0,1,.933.933Zm-5.6-2.8H10.467a.933.933,0,0,0,0,1.867H14.2a.933.933,0,1,0,0-1.867Z" transform="translate(-3 -3)" fill="#52c4c8"/>
</svg>
