<svg xmlns="http://www.w3.org/2000/svg" width="42.755" height="41.667" viewBox="0 0 42.755 41.667">
  <g id="Group_360" data-name="Group 360" transform="translate(-376.745 -584.833)">
    <path id="comic-thought-bubble-outline" d="M6.207,39.588a3.291,3.291,0,0,1,0,6.579,3.291,3.291,0,0,1,0-6.579M16.9,33.009a5.484,5.484,0,1,1-5.344,5.482A5.415,5.415,0,0,1,16.9,33.009m12.827-2.193a8.3,8.3,0,0,1-6.413-2.961A8.3,8.3,0,0,1,16.9,30.816a8.6,8.6,0,0,1-8.4-7.149A8.813,8.813,0,0,1,3,15.465a8.664,8.664,0,0,1,8.551-8.772l1.646.154A8.551,8.551,0,0,1,19.033,4.5a8.3,8.3,0,0,1,6.413,2.961A8.3,8.3,0,0,1,31.86,4.5a8.6,8.6,0,0,1,8.4,7.149,8.813,8.813,0,0,1,5.494,8.2A8.664,8.664,0,0,1,37.2,28.623l-1.646-.154a8.552,8.552,0,0,1-5.836,2.346M11.551,11.079a4.387,4.387,0,0,0,0,8.772,4.284,4.284,0,0,0,1.967-.482,4.459,4.459,0,0,0-.9,2.675A4.332,4.332,0,0,0,16.9,26.43,4.18,4.18,0,0,0,20.1,24.917l3.143-3.684,3.271,3.75A4.3,4.3,0,0,0,34,22.7,4.035,4.035,0,0,0,37.2,24.237a4.387,4.387,0,0,0,0-8.772,4.284,4.284,0,0,0-1.967.482,4.459,4.459,0,0,0,.9-2.675A4.332,4.332,0,0,0,31.86,8.886a4.376,4.376,0,0,0-3.207,1.447l-3.271,3.75L22.24,10.4a4.18,4.18,0,0,0-3.207-1.513,4.412,4.412,0,0,0-4.276,3.728,4.035,4.035,0,0,0-3.207-1.535M16.9,36.3a2.194,2.194,0,1,0,2.138,2.193A2.166,2.166,0,0,0,16.9,36.3Z" transform="translate(373.745 580.333)" fill="#414d55"/>
  </g>
</svg>
