<svg xmlns="http://www.w3.org/2000/svg" width="43" height="43.597" viewBox="0 0 43 43.597">
  <g id="i-medical-library" transform="translate(-0.991 -0.91)">
    <path id="Path_22" data-name="Path 22" d="M10.392,5.611V.91h-4.7v4.7H.991v4.7h4.7v4.7h4.7v-4.7h4.7v-4.7Z" transform="translate(0 0)" fill="#e15aa0"/>
    <path id="Path_23" data-name="Path 23" d="M21.531,18.684a5.874,5.874,0,1,0-5.874-5.874A5.878,5.878,0,0,0,21.531,18.684Z" transform="translate(3.696 1.518)" fill="#52c4c8"/>
    <path id="Path_24" data-name="Path 24" d="M14.975,40.336V35.122L9.747,36.577a3.348,3.348,0,0,1-4.011-4.983l8.386-11.5a5.543,5.543,0,0,1,4.863-2.635H29.122A5.543,5.543,0,0,1,33.984,20.1l8.385,11.5a3.346,3.346,0,0,1-4.01,4.983l-5.23-1.455v5.213Zm9.077-3.642,6.775-2.241-.153-.043C26,33.034,27.82,26.859,32.493,28.239l.639.215V21.48l-9.08,2.966L14.973,21.48v6.974l.635-.215c4.676-1.378,6.5,4.8,1.82,6.171l-.15.043Z" transform="translate(1.052 4.171)" fill="#52c4c8"/>
  </g>
</svg>
