<svg xmlns="http://www.w3.org/2000/svg" width="28.997" height="29.539" viewBox="0 0 28.997 29.539">
  <g id="Group_353" data-name="Group 353" transform="translate(0 0)">
    <path id="Path_1746" data-name="Path 1746" d="M545.78,1085.784a14.653,14.653,0,0,0,14.5-14.77,14.978,14.978,0,0,0-1.94-7.386,1.594,1.594,0,0,0-2.2-.6,1.658,1.658,0,0,0-.588,2.242,11.65,11.65,0,0,1,1.508,5.743,11.279,11.279,0,1,1-11.277-11.487,11.123,11.123,0,0,1,5.461,1.434,1.594,1.594,0,0,0,2.19-.64,1.657,1.657,0,0,0-.628-2.231,14.307,14.307,0,0,0-7.023-1.846,14.772,14.772,0,0,0,0,29.539Z" transform="translate(-531.282 -1056.245)" fill="#52c4c8"/>
    <path id="user-heart-outline" d="M562.484,1075.458a3.223,3.223,0,1,0,3.164,3.222,3.193,3.193,0,0,0-3.164-3.222m0,4.914a1.692,1.692,0,1,1,1.661-1.692h0a1.677,1.677,0,0,1-1.661,1.692m0,2.336c-2.112,0-6.326,1.074-6.326,3.223v2.417h12.653v-2.417c0-2.151-4.215-3.223-6.327-3.223m4.824,4.109h-9.648v-.886c0-.516,2.451-1.692,4.824-1.692,2.349,0,4.824,1.176,4.824,1.692Z" transform="translate(-546.277 -1067.826)" fill="#52c4c8"/>
    <path id="user-heart-outline-2" data-name="user-heart-outline" d="M547.36,1088.8l-.474-.4c-1.582-1.53-2.689-2.5-2.689-3.705a1.772,1.772,0,0,1,1.74-1.773,1.894,1.894,0,0,0,2.847,0,1.72,1.72,0,0,1,1.74,1.7c0,.023,0,.047,0,.07,0,1.208-1.107,2.175-2.689,3.705l-.475.4" transform="translate(-539.067 -1072.326)" fill="#e15aa0"/>
  </g>
</svg>
