<svg xmlns="http://www.w3.org/2000/svg" width="23.589" height="20.35" viewBox="0 0 23.589 20.35">
  <path id="package" d="M2.25,7.756V19.5a1.592,1.592,0,0,0,1.18,1.526l10.221,2.721a1.334,1.334,0,0,0,.786,0l10.221-2.721a1.591,1.591,0,0,0,1.18-1.526V7.756a1.592,1.592,0,0,0-1.18-1.526L14.437,3.494a2.2,2.2,0,0,0-.786,0L3.43,6.231A1.591,1.591,0,0,0,2.25,7.756ZM13.258,22.05l-9.435-2.5V8.9l9.435,2.532V22.051ZM3.823,7.331,7.754,6.277,17.975,9l-3.931,1.054ZM24.265,19.55l-9.435,2.5V11.436l3.145-.865v3.837l3.145-.834V9.738L24.265,8.9ZM21.12,8.165,10.9,5.444l3.145-.834L24.265,7.331l-3.145.834Z" transform="translate(-2.25 -3.458)" fill="#e15aa0" fill-rule="evenodd"/>
</svg>
