<svg xmlns="http://www.w3.org/2000/svg" width="33" height="41.239" viewBox="0 0 33 41.239">
  <g id="Group_353" data-name="Group 353" transform="translate(-309 -860)">
    <path id="iphone" d="M3.178,0H14.257a3.176,3.176,0,0,1,3.178,3.178V28.931a3.176,3.176,0,0,1-3.178,3.178H3.178A3.176,3.176,0,0,1,0,28.931V3.178A3.176,3.176,0,0,1,3.178,0ZM2.049,25.8H15.385V6.02H2.049ZM8.7,30.185a1.735,1.735,0,1,0-1.714-1.714A1.706,1.706,0,0,0,8.7,30.185Z" transform="translate(309 869.13)" fill="#52c4c8"/>
    <path id="Path_1771" data-name="Path 1771" d="M10.581,3C6.4,3,3,5.721,3,9.065a5.921,5.921,0,0,0,3.791,5.257v3.841l4.048-3.036c4.061-.108,7.323-2.786,7.323-6.061C18.162,5.721,14.761,3,10.581,3Zm0,10.614h-.253L8.307,15.13V13.3l-.486-.187c-2.038-.785-3.3-2.335-3.3-4.046,0-2.508,2.721-4.549,6.065-4.549s6.065,2.04,6.065,4.549S13.925,13.614,10.581,13.614Z" transform="translate(323.838 857)" fill="#e15aa0"/>
    <path id="Path_1772" data-name="Path 1772" d="M16.5,9h1.516v3.791H16.5Zm0,4.549h1.516v1.516H16.5Z" transform="translate(317.161 854.032)" fill="#e15aa0"/>
  </g>
</svg>
