<svg xmlns="http://www.w3.org/2000/svg" width="30" height="178" viewBox="0 0 30 178">
  <g id="Group_355" data-name="Group 355" transform="translate(-314 -511)">
    <path id="checkmark-circle-2-fill" d="M18,3A15,15,0,1,0,33,18,15,15,0,0,0,18,3Zm6.45,11.415-6.855,9a1.5,1.5,0,0,1-2.37.015l-3.66-4.665a1.5,1.5,0,0,1,2.37-1.845l2.445,3.12,5.67-7.5a1.509,1.509,0,1,1,2.4,1.83Z" transform="translate(311 508)" fill="#52c4c8"/>
    <path id="dots-horizontal-circle" d="M18,3A15,15,0,1,1,3,18,15,15,0,0,1,18,3m0,12.75A2.25,2.25,0,1,0,20.25,18,2.25,2.25,0,0,0,18,15.75m-8.25,0A2.25,2.25,0,1,0,12,18a2.25,2.25,0,0,0-2.25-2.25m16.5,0A2.25,2.25,0,1,0,28.5,18,2.25,2.25,0,0,0,26.25,15.75Z" transform="translate(311 656)" fill="#e15aa0"/>
    <rect id="Rectangle_81" data-name="Rectangle 81" width="5" height="52" transform="translate(327 614)" fill="#e15aa0"/>
    <path id="checkmark-circle-2-fill-2" data-name="checkmark-circle-2-fill" d="M18,3A15,15,0,1,0,33,18,15,15,0,0,0,18,3Zm6.45,11.415-6.855,9a1.5,1.5,0,0,1-2.37.015l-3.66-4.665a1.5,1.5,0,0,1,2.37-1.845l2.445,3.12,5.67-7.5a1.509,1.509,0,1,1,2.4,1.83Z" transform="translate(311 582)" fill="#52c4c8"/>
    <rect id="Rectangle_80" data-name="Rectangle 80" width="5" height="52" transform="translate(327 539)" fill="#52c4c8"/>
  </g>
</svg>
